<svg width="38" height="37" viewBox="0 0 38 37" fill="none" xmlns="http://www.w3.org/2000/svg">
<path fill-rule="evenodd" clip-rule="evenodd" d="M11.7011 16.4415C11.745 16.4942 11.7914 16.5442 11.8398 16.5932C11.9529 16.7076 12.0756 16.8084 12.2046 16.8968C13.5712 17.8147 15.087 15.9408 14.0311 14.6724C13.9862 14.6195 13.9399 14.5677 13.8915 14.5178C13.8431 14.4687 13.7926 14.4227 13.7414 14.3794C12.4374 13.2675 10.6034 15.1211 11.7011 16.4415" fill="#475DC4"/>
<path fill-rule="evenodd" clip-rule="evenodd" d="M4.08008 11.7504C4.1285 11.7994 4.17903 11.8464 4.23016 11.8906C5.53512 13.0016 7.3673 11.145 6.26835 9.82662C6.22565 9.77394 6.17903 9.72399 6.13151 9.67495C6.08309 9.62682 6.03377 9.58081 5.98264 9.53661C4.67858 8.42472 2.84459 10.2783 3.94234 11.5987C3.98625 11.6505 4.03166 11.7014 4.08008 11.7504" fill="#475DC4"/>
<path fill-rule="evenodd" clip-rule="evenodd" d="M9.89204 6.2738C9.94047 6.32284 9.99099 6.36976 10.0421 6.41305C11.3471 7.52373 13.1793 5.66836 12.0803 4.3491C12.0376 4.29703 11.9919 4.24708 11.9435 4.19834C11.8951 4.149 11.8457 4.10299 11.7946 4.06C10.4905 2.9472 8.65656 4.80167 9.7534 6.12183C9.79701 6.1736 9.84362 6.22476 9.89204 6.2738" fill="#475DC4"/>
<path fill-rule="evenodd" clip-rule="evenodd" d="M19.5711 3.22831C19.6223 3.18411 19.671 3.13598 19.7194 3.08724C19.7666 3.03729 19.8123 2.98523 19.855 2.93225C20.9329 1.59483 19.0704 -0.229972 17.7826 0.90281C17.7323 0.94731 17.6839 0.994231 17.6364 1.04327C17.5889 1.09322 17.5432 1.14408 17.5005 1.19705C16.4226 2.53266 18.2842 4.35928 19.5711 3.22831" fill="#475DC4"/>
<path fill-rule="evenodd" clip-rule="evenodd" d="M25.2526 4.21467C25.2051 4.26371 25.1606 4.31457 25.1179 4.36724C24.0397 5.70406 25.9005 7.53067 27.1874 6.39971C27.2394 6.3546 27.289 6.30738 27.3356 6.25743C27.3765 6.21505 27.4153 6.17206 27.4514 6.12666C28.4704 4.89579 27.0325 3.03467 25.6764 3.86866C25.5215 3.96281 25.382 4.08026 25.2526 4.21467" fill="#475DC4"/>
<path fill-rule="evenodd" clip-rule="evenodd" d="M31.2047 9.55072C31.1545 9.59491 31.1057 9.64184 31.0576 9.69088C31.0272 9.72357 30.9978 9.75536 30.9701 9.78896C29.8606 11.0825 31.5884 13.0032 32.9163 11.9404C32.9951 11.8771 33.0699 11.8087 33.1403 11.7348C33.1887 11.6849 33.2345 11.6328 33.2772 11.5802C34.3542 10.2436 32.4916 8.41884 31.2047 9.55072" fill="#475DC4"/>
<path fill-rule="evenodd" clip-rule="evenodd" d="M23.4912 14.3931C23.44 14.4382 23.3913 14.4854 23.3438 14.5345C23.2966 14.5832 23.2518 14.6353 23.209 14.6883C22.1302 16.0239 23.9907 17.8505 25.2785 16.7195C25.3299 16.6744 25.3793 16.6272 25.4268 16.5772C25.4743 16.5282 25.52 16.4764 25.5627 16.4226C26.6397 15.086 24.7772 13.2612 23.4912 14.3931" fill="#475DC4"/>
<path fill-rule="evenodd" clip-rule="evenodd" d="M18.5198 12.0349C18.5884 12.0388 18.6584 12.0388 18.7276 12.0367C18.7971 12.0339 18.8654 12.0282 18.9339 12.0194C20.6521 11.8072 20.561 9.09725 18.8323 9.00704C18.7646 9.00311 18.6963 9.0022 18.6272 9.00523C18.5577 9.00704 18.4903 9.01279 18.4221 9.02127C16.7039 9.23287 16.792 11.9416 18.5198 12.0349" fill="#475DC4"/>
<path fill-rule="evenodd" clip-rule="evenodd" d="M29.7088 32.54H7.49435C7.22939 32.54 7.01465 32.3078 7.01465 32.0217L7.01766 30.8718C7.01766 30.5847 7.23239 30.3535 7.49736 30.3535L29.7118 30.3535C29.9768 30.3535 30.1912 30.5847 30.1912 30.8718L30.1885 32.0217C30.1885 32.3078 29.9737 32.54 29.7088 32.54" fill="#475DC4"/>
<path fill-rule="evenodd" clip-rule="evenodd" d="M23.1615 36.1221H14.0331C13.7672 36.1221 13.5537 35.8909 13.5537 35.6041V34.4525C13.5537 34.1657 13.7672 33.9345 14.0331 33.9345H23.1615C23.4265 33.9345 23.6412 34.1657 23.6412 34.4525V35.6041C23.6412 35.8909 23.4265 36.1221 23.1615 36.1221" fill="#475DC4"/>
<path fill-rule="evenodd" clip-rule="evenodd" d="M37.0009 12.6764C36.8385 12.2057 36.658 11.7443 36.4604 11.2918C36.3028 10.9288 35.7792 10.9028 35.6264 11.2688C34.861 13.0954 33.135 14.1794 31.055 15.1739C30.7627 15.314 30.4273 15.1336 30.3504 14.8136C30.0752 13.6602 29.5916 12.6295 28.886 11.7068C28.735 11.5082 28.452 11.4685 28.2487 11.6139C27.9693 11.8106 27.6216 12.0452 27.2361 12.2844C26.9816 12.443 26.9341 12.7851 27.1164 13.0251C27.7777 13.8979 28.1774 14.8838 28.335 16.0378C28.3636 16.2491 28.2457 16.4568 28.0547 16.5461C26.3928 17.331 24.7534 18.2362 23.532 19.5412C23.289 19.7994 22.8728 19.6932 22.7398 19.3623C22.2186 18.0603 21.4854 16.8603 20.5419 15.756C20.3597 15.5438 20.3786 15.219 20.5991 15.0479C21.9916 13.9642 23.5624 13.0309 25.0887 12.1318L25.4487 11.9175C25.6225 11.8176 25.7955 11.7138 25.9729 11.6148C26.4679 11.3157 26.9967 10.9987 27.4956 10.673C29.5031 9.39794 31.4361 7.91249 32.4505 5.75409C32.5389 5.5667 32.4959 5.33543 32.3498 5.1883C32.0012 4.83745 31.6403 4.50022 31.2679 4.17631C31.2006 4.13695 31.1254 4.1091 31.0427 4.1091C30.8538 4.1091 30.6953 4.22051 30.6258 4.37913C30.6192 4.39548 30.6117 4.41092 30.6069 4.42817C29.9239 6.22209 28.3332 7.56163 26.1735 8.93084C26.0129 9.03286 25.8078 9.03377 25.6454 8.93568C24.4637 8.21793 23.1786 7.61249 21.9308 7.03127L21.5431 6.84661C21.375 6.76608 21.286 6.60352 21.286 6.44005C21.286 6.30958 21.3428 6.17699 21.4634 6.08859C23.3182 4.71243 24.5729 3.10801 25.3091 1.18512C25.4078 0.9266 25.2673 0.627814 25.0108 0.536392C24.6147 0.397141 24.212 0.270302 23.8048 0.15769C23.5606 0.0886697 23.3088 0.231855 23.2138 0.470097C22.2887 2.82254 20.5582 4.20325 18.8421 5.21525C18.6938 5.30273 18.5116 5.30273 18.3633 5.21525C16.646 4.20325 14.9167 2.82526 13.9885 0.471308C13.8956 0.232764 13.643 0.0895779 13.3979 0.15769C12.9913 0.27121 12.5888 0.398049 12.1928 0.538511C11.9341 0.628722 11.7967 0.9266 11.8944 1.18422C12.7567 3.43161 14.32 5.24279 16.7203 6.76608C17.2406 7.09756 17.818 7.42904 18.483 7.77505C19.2818 8.1919 20.0836 8.56879 20.9714 8.98563C20.978 8.98836 20.9876 8.99229 20.9943 8.99532L21.0084 9.0041C21.0123 9.00592 21.015 9.00773 21.0189 9.00985C21.7113 9.33437 22.378 9.64889 23.0114 9.96978C23.3467 10.1387 23.3564 10.6182 23.0334 10.8113C21.6628 11.6299 20.2144 12.539 18.8989 13.6027C18.7233 13.745 18.4794 13.7441 18.3025 13.6018C17.1648 12.6812 15.9395 11.8875 14.8216 11.2091C14.6878 11.1265 14.5176 11.1237 14.378 11.1967C13.8833 11.4552 13.4625 11.7213 13.1254 11.9547C12.8421 12.15 12.8601 12.5726 13.1558 12.7485C14.6051 13.6173 15.9946 14.503 17.2057 15.5314C17.6691 15.9252 18.0652 16.3 18.4165 16.6747C20.5308 18.9194 21.5194 21.5186 21.5194 24.854V26.2271C21.5194 26.498 21.3028 26.7172 21.0343 26.7172L16.1702 26.7172C15.9025 26.7172 15.686 26.498 15.686 26.2271V24.8213C15.6908 22.2439 16.3146 20.0707 17.5816 18.1911C17.7107 17.9979 17.7088 17.7394 17.5579 17.5608C17.2237 17.1676 16.8977 16.8467 16.6213 16.6009C16.4135 16.4162 16.101 16.4528 15.9386 16.6787C15.3344 17.5193 14.8436 18.409 14.4643 19.3565C14.3323 19.688 13.9137 19.7949 13.6716 19.5364C12.4472 18.2325 10.806 17.3262 9.14584 16.5461C8.95486 16.4577 8.83607 16.2491 8.86464 16.0378C9.11155 14.2091 9.95968 12.8063 11.5248 11.5927C11.9494 11.2554 12.452 10.9276 13.0523 10.5837C14.0246 10.0206 15.0914 9.51903 16.2216 8.99048L16.5104 8.85304C16.5236 8.84729 16.5368 8.84063 16.5494 8.83276C16.6917 8.75708 16.7876 8.61086 16.7876 8.43983C16.7876 8.28423 16.7088 8.14861 16.5882 8.06809C16.1236 7.77414 15.7401 7.48565 15.4493 7.24741C15.3049 7.13026 15.1134 7.10331 14.9458 7.18202C13.8015 7.72208 12.6427 8.28029 11.5639 8.93478C11.4006 9.03377 11.1964 9.03286 11.0349 8.93084C8.87125 7.55982 7.27757 6.21846 6.59456 4.42333C6.59186 4.40789 6.58614 4.39366 6.57952 4.37913C6.51005 4.22051 6.34945 4.1091 6.16328 4.1091C6.08088 4.1091 6.00659 4.13695 5.93922 4.1754C5.56689 4.49931 5.20599 4.83473 4.85832 5.18618C4.71216 5.33331 4.66855 5.56791 4.75787 5.75621C5.64028 7.63459 7.21562 8.99835 8.9302 10.1626C9.18674 10.3367 9.21501 10.6951 8.99968 10.92C7.92058 12.0422 7.2081 13.3366 6.8511 14.83C6.77682 15.1402 6.4493 15.317 6.16328 15.1805C4.07877 14.1852 2.34825 13.1002 1.57983 11.2715C1.42494 10.9064 0.902533 10.9324 0.744036 11.2957C0.549149 11.7425 0.370803 12.1978 0.2093 12.6622C0.105841 12.961 0.148548 13.303 0.335615 13.5576C1.87697 15.6494 4.44449 16.8131 6.81411 17.8759C10.3843 19.4798 13.4682 20.8644 13.4767 24.8376V26.2271C13.4767 26.498 13.2601 26.7172 12.9922 26.7172H9.61201H4.40058C4.16148 26.7172 3.96749 26.9016 3.96749 27.1274L3.96268 28.5478C3.96268 28.7736 4.15637 28.957 4.39577 28.957L32.7979 28.957C33.0373 28.957 33.2313 28.7736 33.2313 28.5478L33.2367 27.1274C33.2367 26.9016 33.0421 26.7172 32.803 26.7172H31.3401H24.2111C23.9431 26.7172 23.7257 26.498 23.7257 26.2271V24.8576C23.7257 20.8674 26.8144 19.4813 30.3913 17.8759C32.7666 16.8113 35.3377 15.6437 36.8794 13.5431C37.0598 13.2973 37.1007 12.9658 37.0009 12.6764" fill="#475DC4"/>
</svg>
