<svg width="1024" height="309" viewBox="0 0 1024 309" fill="none" xmlns="http://www.w3.org/2000/svg">
<g id="Blue_on_white">
<g id="g10">
<g id="g12">
<g id="g14 Clipped">
<g id="g14">
<g id="Group 6">
<path id="path22" fill-rule="evenodd" clip-rule="evenodd" d="M98.989 139.75C99.3654 140.201 99.7625 140.629 100.178 141.05C101.147 142.031 102.199 142.895 103.305 143.653C115.021 151.522 128.016 135.457 118.963 124.583C118.579 124.129 118.182 123.685 117.767 123.257C117.352 122.837 116.919 122.442 116.481 122.071C105.301 112.539 89.578 128.429 98.989 139.75" fill="white"/>
<path id="path26" fill-rule="evenodd" clip-rule="evenodd" d="M33.6557 99.5336C34.0708 99.954 34.504 100.356 34.9423 100.735C46.1298 110.26 61.8371 94.3431 52.4158 83.0409C52.0497 82.5893 51.65 82.1611 51.2427 81.7407C50.8275 81.328 50.4047 80.9336 49.9664 80.5547C38.7866 71.0224 23.0639 86.913 32.4748 98.2334C32.8513 98.6772 33.2406 99.1132 33.6557 99.5336" fill="white"/>
<path id="path30" fill-rule="evenodd" clip-rule="evenodd" d="M83.4839 52.5815C83.8991 53.0019 84.3322 53.4042 84.7705 53.7753C95.958 63.2972 111.665 47.391 102.244 36.081C101.878 35.6346 101.486 35.2064 101.071 34.7886C100.656 34.3656 100.233 33.9711 99.7946 33.6026C88.6149 24.0625 72.8921 39.9609 82.2953 51.2787C82.6692 51.7225 83.0688 52.161 83.4839 52.5815" fill="white"/>
<path id="path34" fill-rule="evenodd" clip-rule="evenodd" d="M166.459 26.4704C166.897 26.0915 167.315 25.6788 167.73 25.261C168.135 24.8328 168.527 24.3864 168.893 23.9322C178.134 12.4665 162.166 -3.17756 151.125 6.53379C150.695 6.91529 150.28 7.31755 149.872 7.73798C149.465 8.16619 149.073 8.60219 148.707 9.05636C139.466 20.5065 155.426 36.1661 166.459 26.4704" fill="white"/>
<path id="path38" fill-rule="evenodd" clip-rule="evenodd" d="M215.171 34.9264C214.763 35.3469 214.382 35.7829 214.015 36.2344C204.772 47.695 220.724 63.3546 231.757 53.6588C232.203 53.2721 232.629 52.8673 233.028 52.4391C233.379 52.0757 233.711 51.7072 234.021 51.3179C242.756 40.7657 230.429 24.8102 218.803 31.9601C217.476 32.7672 216.279 33.7742 215.171 34.9264" fill="white"/>
<path id="path42" fill-rule="evenodd" clip-rule="evenodd" d="M266.198 80.6726C265.767 81.0515 265.349 81.4537 264.937 81.8741C264.676 82.1544 264.424 82.4269 264.187 82.715C254.675 93.8044 269.488 110.271 280.871 101.159C281.547 100.617 282.189 100.03 282.792 99.3971C283.207 98.9689 283.599 98.5225 283.965 98.071C293.198 86.613 277.23 70.969 266.198 80.6726" fill="white"/>
<path id="path46" fill-rule="evenodd" clip-rule="evenodd" d="M200.072 122.188C199.633 122.574 199.216 122.979 198.808 123.399C198.403 123.817 198.019 124.264 197.653 124.718C188.404 136.168 204.354 151.828 215.395 142.132C215.836 141.745 216.258 141.34 216.666 140.912C217.073 140.492 217.465 140.048 217.831 139.586C227.064 128.128 211.097 112.484 200.072 122.188" fill="white"/>
<path id="path50" fill-rule="evenodd" clip-rule="evenodd" d="M157.45 101.972C158.038 102.006 158.639 102.006 159.232 101.988C159.827 101.964 160.412 101.915 161 101.84C175.73 100.02 174.949 76.7879 160.129 76.0146C159.549 75.9808 158.963 75.973 158.37 75.999C157.775 76.0146 157.197 76.0639 156.612 76.1365C141.882 77.9506 142.637 101.173 157.45 101.972" fill="white"/>
<path id="path54" fill-rule="evenodd" clip-rule="evenodd" d="M253.371 277.764H62.9264C60.6549 277.764 58.814 275.773 58.814 273.321L58.8397 263.463C58.8397 261.001 60.6807 259.019 62.9522 259.019H253.397C255.668 259.019 257.507 261.001 257.507 263.463L257.484 273.321C257.484 275.773 255.643 277.764 253.371 277.764" fill="white"/>
<path id="path62" fill-rule="evenodd" clip-rule="evenodd" d="M197.239 308.471H118.981C116.702 308.471 114.871 306.489 114.871 304.03V294.158C114.871 291.699 116.702 289.717 118.981 289.717H197.239C199.511 289.717 201.352 291.699 201.352 294.158V304.03C201.352 306.489 199.511 308.471 197.239 308.471" fill="white"/>
<path id="path58" fill-rule="evenodd" clip-rule="evenodd" d="M315.886 107.472C314.494 103.436 312.947 99.4813 311.253 95.6015C309.902 92.4898 305.413 92.2666 304.103 95.4042C297.541 111.064 282.744 120.357 264.912 128.883C262.406 130.084 259.531 128.538 258.871 125.794C256.512 115.907 252.366 107.07 246.317 99.1595C245.023 97.457 242.597 97.1171 240.854 98.3628C238.458 100.05 235.478 102.061 232.172 104.111C229.991 105.471 229.584 108.404 231.146 110.462C236.816 117.944 240.243 126.396 241.594 136.289C241.839 138.101 240.828 139.881 239.191 140.647C224.943 147.376 210.888 155.136 200.417 166.324C198.334 168.538 194.766 167.627 193.626 164.79C189.158 153.628 182.872 143.341 174.784 133.873C173.221 132.054 173.383 129.269 175.273 127.803C187.211 118.512 200.678 110.511 213.763 102.803L216.849 100.966C218.34 100.109 219.822 99.2192 221.343 98.3706C225.587 95.8065 230.12 93.0893 234.398 90.2968C251.608 79.3657 268.179 66.6309 276.876 48.1269C277.634 46.5205 277.265 44.5377 276.012 43.2764C273.024 40.2686 269.93 37.3775 266.738 34.6006C266.16 34.2632 265.516 34.0244 264.807 34.0244C263.187 34.0244 261.829 34.9795 261.233 36.3394C261.176 36.4795 261.112 36.6119 261.071 36.7598C255.215 52.1391 241.578 63.623 223.063 75.3613C221.686 76.2359 219.928 76.2436 218.536 75.4028C208.405 69.2495 197.388 64.059 186.69 59.0762L183.367 57.4931C181.926 56.8028 181.162 55.4091 181.162 54.0077C181.162 52.8892 181.65 51.7524 182.684 50.9946C198.584 39.1967 209.341 25.442 215.653 8.9571C216.499 6.74077 215.295 4.17928 213.095 3.39552C209.7 2.20171 206.247 1.11432 202.756 0.148897C200.662 -0.442815 198.504 0.784718 197.69 2.82716C189.759 22.9947 174.923 34.8316 160.211 43.5074C158.94 44.2574 157.377 44.2574 156.106 43.5074C141.384 34.8316 126.558 23.0181 118.601 2.83755C117.805 0.792506 115.639 -0.435029 113.537 0.148897C110.051 1.12211 106.602 2.2095 103.206 3.41368C100.989 4.18706 99.8102 6.74078 100.648 8.94932C108.04 28.2163 121.443 43.7436 142.02 56.8028C146.481 59.6446 151.431 62.4863 157.132 65.4527C163.98 69.0263 170.854 72.2574 178.465 75.831C178.522 75.8544 178.605 75.8881 178.661 75.914L178.783 75.9893C178.816 76.0049 178.839 76.0204 178.873 76.0386C184.808 78.8207 190.524 81.5172 195.954 84.2681C198.829 85.7162 198.912 89.8271 196.143 91.4828C184.393 98.5003 171.976 106.294 160.698 115.413C159.192 116.633 157.101 116.625 155.585 115.406C145.831 107.514 135.327 100.709 125.743 94.893C124.596 94.1845 123.137 94.1611 121.94 94.7866C117.699 97.0029 114.092 99.2841 111.201 101.285C108.773 102.959 108.927 106.582 111.462 108.09C123.887 115.538 135.799 123.132 146.182 131.948C150.155 135.324 153.551 138.537 156.562 141.75C174.688 160.993 183.163 183.276 183.163 211.87V223.642C183.163 225.965 181.307 227.844 179.004 227.844H137.305C135.01 227.844 133.153 225.965 133.153 223.642V211.59C133.195 189.494 138.542 170.863 149.405 154.749C150.511 153.094 150.495 150.877 149.201 149.346C146.337 145.975 143.542 143.224 141.172 141.117C139.391 139.534 136.712 139.848 135.319 141.784C130.139 148.991 125.932 156.618 122.68 164.741C121.548 167.583 117.959 168.499 115.884 166.283C105.387 155.105 91.3172 147.335 77.0847 140.647C75.4474 139.889 74.429 138.101 74.6739 136.289C76.7907 120.612 84.0617 108.585 97.4794 98.1811C101.12 95.29 105.428 92.4794 110.575 89.5312C118.911 84.7041 128.056 80.4038 137.746 75.8725L140.221 74.6943C140.334 74.645 140.448 74.5879 140.556 74.5204C141.775 73.8716 142.598 72.6181 142.598 71.1518C142.598 69.8179 141.922 68.6552 140.889 67.9649C136.905 65.4449 133.618 62.9716 131.124 60.9292C129.887 59.9248 128.244 59.6939 126.808 60.3686C116.998 64.9985 107.063 69.7841 97.8146 75.395C96.4146 76.2436 94.6639 76.2359 93.2793 75.3613C74.7306 63.6075 61.0679 52.108 55.2125 36.7183C55.1893 36.5859 55.1403 36.464 55.0836 36.3394C54.488 34.9795 53.1112 34.0244 51.5152 34.0244C50.8087 34.0244 50.1718 34.2632 49.5943 34.5928C46.4023 37.3697 43.3083 40.2452 40.3277 43.2583C39.0746 44.5195 38.7008 46.5308 39.4665 48.1451C47.0314 64.2485 60.5368 75.94 75.236 85.9213C77.4353 87.4135 77.6777 90.4863 75.8316 92.4145C66.5805 102.035 60.4723 113.132 57.4118 125.935C56.775 128.595 53.9672 130.11 51.5152 128.94C33.6446 120.407 18.8088 111.105 12.2211 95.4276C10.8932 92.2977 6.41464 92.5209 5.05585 95.6352C3.38508 99.4658 1.85611 103.369 0.471539 107.35C-0.415413 109.912 -0.0492873 112.844 1.55445 115.027C14.7685 132.96 36.7799 142.936 57.0947 152.048C87.7023 165.797 114.141 177.668 114.213 211.73V223.642C114.213 225.965 112.356 227.844 110.059 227.844H81.0811H36.4034C34.3536 227.844 32.6906 229.425 32.6906 231.361L32.6494 243.537C32.6494 245.473 34.3098 247.046 36.3622 247.046L279.854 247.046C281.906 247.046 283.569 245.473 283.569 243.537L283.616 231.361C283.616 229.425 281.948 227.844 279.898 227.844H267.357H206.239C203.942 227.844 202.078 225.965 202.078 223.642V211.902C202.078 177.694 228.558 165.81 259.222 152.048C279.586 142.92 301.628 132.911 314.845 114.902C316.392 112.795 316.742 109.953 315.886 107.472" fill="white"/>
</g>
<path id="path66" fill-rule="evenodd" clip-rule="evenodd" d="M990.165 229.033C968.995 229.033 954.94 217.549 953.901 199.312H973.334C974.203 207.417 980.623 212.483 990.165 212.483C998.493 212.483 1004.05 208.432 1004.05 203.363C1004.05 184.452 956.157 202.52 956.157 166.553C956.157 151.692 969.515 141.22 987.561 141.22C1008.04 141.22 1022.09 152.198 1022.96 168.748L1003.53 168.748C1002.31 160.809 994.85 156.756 988.082 156.756C980.448 156.756 975.415 160.135 975.415 165.875C975.415 184.283 1024 164.017 1024 202.52C1024 218.564 1010.64 229.033 990.165 229.033V229.033ZM933.3 142.573V227.681H911.957V214.51C907.099 223.798 897.206 229.033 884.716 229.033C865.106 229.033 852.268 215.185 852.268 195.258V142.573H873.436V190.87C873.436 202.52 880.895 210.625 891.655 210.625C903.629 210.625 911.957 201.508 911.957 189.012V142.573H933.3ZM787.591 116.903H808.935V142.573H833.228V159.966H808.935V197.117C808.935 205.73 813.617 210.119 821.599 210.119H833.228V227.681H819.173C800.083 227.681 787.591 216.874 787.591 197.96V159.966H770.414V142.573H787.591V116.903ZM730.205 142.573H751.549V227.681H730.205V142.573ZM729.336 106.097H752.242V129.233H729.336V106.097ZM660.323 211.133C674.553 211.133 683.926 200.833 683.926 185.126C683.926 169.423 674.553 159.122 660.323 159.122C646.096 159.122 636.726 169.423 636.726 185.126C636.726 200.833 646.096 211.133 660.323 211.133V211.133ZM657.201 229.033C631 229.033 615.556 211.133 615.556 185.127C615.556 159.122 631 141.22 656.856 141.22C668.306 141.22 677.503 145.949 682.533 152.873V106.097L703.704 106.097V227.681H682.533V217.043C677.503 224.473 667.788 229.033 657.201 229.033V229.033ZM556.784 156.756C544.81 156.756 537.178 162.837 534.922 175.67L577.952 175.67C577.086 164.861 569.451 156.756 556.784 156.756V156.756ZM578.82 199.312H599.642C596.345 217.383 580.034 229.033 558.518 229.033C529.885 229.033 513.923 207.08 513.923 184.789C513.923 162.33 528.152 141.22 556.782 141.22C586.106 141.22 599.294 161.993 599.294 182.256C599.294 185.127 599.122 187.662 598.949 189.349L534.397 189.349C535.96 203.026 544.984 211.808 558.518 211.808C569.45 211.808 576.564 207.417 578.82 199.312V199.312ZM428.253 128.219V164.017H453.933C467.47 164.017 473.024 155.406 473.024 145.949C473.024 136.492 467.47 128.219 453.933 128.219H428.253ZM493.497 196.104L496.447 227.681H473.716L470.767 198.637C469.898 189.686 463.478 183.268 454.456 183.268H428.252V227.681H405.173V109.473H454.974C480.309 109.473 495.233 124.505 495.233 145.949C495.233 158.108 488.985 166.381 478.922 171.45C487.25 176.516 492.628 185.295 493.497 196.104V196.104Z" fill="white"/>
</g>
</g>
</g>
</g>
</g>
</svg>
